#!OML:ASF X:\für Bonn\!DataBase\2005_08_10_Bjorn_Final\c3d\bjorn.ASF
:FULLY-SPECIFIED
:DEGREES
249
root -0.303211 22.5095 7.17896 -178.691 50.4011 182.204
lowerback -8.44016 8.8485 1.72492
upperback 0.0270281 11.8992 -3.69738
thorax 5.84512 6.00883 -3.11528
lowerneck 2.27599 2.30832 9.87211
upperneck 12.2825 4.15098 -4.92368
head 3.59138 2.54933 -2.99683
rclavicle 5.98839e-014 -6.99722e-014
rhumerus 77.8144 14.4881 -81.1165
rradius 44.0213
rwrist 36.5781
rhand -57.999 15.8985
rfingers 7.12502
rthumb -30.2449 -11.6441
lclavicle 5.98839e-014 -6.99722e-014
lhumerus 51.1441 -12.5773 92.9184
lradius 62.3606
lwrist 61.3265
lhand -51.2845 -4.99372
lfingers 7.12502
lthumb -23.8214 23.5493
rfemur 541.58 -179.819 -533.396
rtibia 32.8746
rfoot 14.4017 11.5204
rtoes -19.2862
lfemur 350.622 1.20684 352.764
ltibia 27.8336
lfoot 14.1163 5.25565
ltoes -24.4677
250
root -0.288601 22.4976 7.12067 -178.733 50.3292 182.081
lowerback -8.51196 8.82121 1.56739
upperback 0.00694102 11.8931 -3.83693
thorax 5.8622 6.00642 -3.16691
lowerneck 2.41236 2.26702 9.74037
upperneck 12.3481 4.11497 -4.82019
head 3.58143 2.53826 -2.94646
rclavicle -5.41191e-014 4.77083e-014
rhumerus 77.6329 14.4261 -81.2912
rradius 44.4358
rwrist 36.4618
rhand -58.0451 16.4772
rfingers 7.12502
rthumb -30.2889 -11.0573
lclavicle -5.41191e-014 4.77083e-014
lhumerus 50.9431 -12.6417 92.5582
lradius 62.571
lwrist 61.0968
lhand -51.2254 -5.15538
lfingers 7.12502
lthumb -23.7648 23.395
rfemur 541.379 -179.76 -533.395
rtibia 32.8815
rfoot 14.2403 12.003
rtoes -18.7412
lfemur 350.331 1.4614 352.757
ltibia 28.1343
lfoot 13.4379 4.51848
ltoes -25.493
251
root -0.276966 22.4706 7.06267 -178.687 50.2426 182.051
lowerback -8.57672 8.78736 1.47633
upperback -0.0342291 11.8686 -3.95319
thorax 5.85992 5.99587 -3.23535
lowerneck 2.60814 2.22917 9.61542
upperneck 12.3417 4.08769 -4.74941
head 3.54138 2.52892 -2.90818
rclavicle -2.90971e-014 7.4743e-014
rhumerus 77.3721 14.4265 -81.5441
rradius 44.8945
rwrist 36.7151
rhand -58.1818 16.4299
rfingers 7.12502
rthumb -30.4193 -11.0806
lclavicle -2.90971e-014 7.4743e-014
lhumerus 50.7185 -12.6847 92.2256
lradius 62.7776
lwrist 60.9602
lhand -50.9816 -5.6122
lfingers 7.12502
lthumb -23.531 22.9684
rfemur 541.176 -179.692 -533.335
rtibia 32.8481
rfoot 13.9648 12.525
rtoes -18.3924
lfemur 349.961 1.60934 352.814
ltibia 28.485
lfoot 12.7123 3.89117
ltoes -25.9955
252
root -0.266792 22.4284 7.00536 -178.654 50.151 182.018
lowerback -8.62944 8.75838 1.36745
upperback -0.0701878 11.8513 -4.0547
thorax 5.85013 5.988 -3.27991
lowerneck 2.83113 2.18965 9.51254
upperneck 12.2473 4.05336 -4.69201
head 3.47076 2.51302 -2.87857
rclavicle 7.67309e-014 2.70347e-014
rhumerus 77.144 14.3986 -81.6944
rradius 45.3424
rwrist 36.9847
rhand -58.4272 16.3494
rfingers 7.12502
rthumb -30.6533 -11.1176
lclavicle 7.67309e-014 2.70347e-014
lhumerus 50.5186 -12.7577 91.8777
lradius 63.0111
lwrist 60.8705
lhand -50.9807 -5.77272
lfingers 7.12502
lthumb -23.5301 22.808
rfemur 540.997 -179.657 -533.281
rtibia 32.7911
rfoot 13.6074 12.9901
rtoes -17.9389
lfemur 349.549 1.79301 352.872
ltibia 28.8701
lfoot 11.9485 3.27683
ltoes -26.2982
253
root -0.258449 22.3763 6.94774 -178.623 50.028 182.002
lowerback -8.6772 8.71009 1.26889
upperback -0.0743739 11.8059 -4.13221
thorax 5.86574 5.96586 -3.30804
lowerneck 3.04281 2.17515 9.47269
upperneck 12.0862 4.05135 -4.71765
head 3.38692 2.50881 -2.88396
rclavicle -6.97983e-014 -6.99722e-014
rhumerus 76.9326 14.4107 -81.8448
rradius 45.8785
rwrist 37.2497
rhand -58.729 16.4814
rfingers 7.12502
rthumb -30.9411 -10.9313
lclavicle -6.97983e-014 -6.99722e-014
lhumerus 50.3958 -12.7984 91.5288
lradius 63.1423
lwrist 60.6175
lhand -51.0267 -5.8184
lfingers 7.12502
lthumb -23.5742 22.7567
rfemur 540.842 -179.619 -533.221
rtibia 32.7334
rfoot 13.0582 13.465
rtoes -17.94
lfemur 349.134 1.87118 352.93
ltibia 29.2525
lfoot 11.0637 2.70457
ltoes -26.5761
254
root -0.251487 22.3124 6.89045 -178.571 49.9098 182.046
lowerback -8.68514 8.67843 1.20517
upperback -0.0829996 11.777 -4.19407
thorax 5.85941 5.95243 -3.3422
lowerneck 3.37566 2.14927 9.528
upperneck 11.7547 4.0374 -4.78101
head 3.23414 2.49726 -2.91932
rclavicle -9.93675e-014 2.22639e-014
rhumerus 76.6327 14.4052 -82.0711
rradius 46.4855
rwrist 37.566
rhand -59.0878 16.7847
rfingers 7.12502
rthumb -31.283 -10.5624
lclavicle -9.93675e-014 2.22639e-014
lhumerus 50.1842 -12.8981 91.1611
lradius 63.3565
lwrist 60.1895
lhand -50.8441 -5.9428
lfingers 7.12502
lthumb -23.399 22.6547
rfemur 540.725 -179.702 -533.106
rtibia 32.6687
rfoot 12.3284 13.832
rtoes -18.1607
lfemur 348.74 1.9142 353.022
ltibia 29.6224
lfoot 10.0104 2.18098
ltoes -26.6545
255
root -0.243924 22.2389 6.83266 -178.642 49.7903 181.907
lowerback -8.69835 8.62541 0.984835
upperback -0.0799811 11.7351 -4.24161
thorax 5.83258 5.92791 -3.28091
lowerneck 3.64778 2.13376 9.56106
upperneck 11.1853 3.99542 -4.66129
head 3.35221 2.49109 -3.1838
rclavicle -6.29153e-014 1.11319e-014
rhumerus 76.3225 14.4538 -82.2793
rradius 47.1519
rwrist 37.8236
rhand -59.4666 17.4698
rfingers 7.12502
rthumb -31.6439 -9.8069
lclavicle -6.29153e-014 1.11319e-014
lhumerus 49.8664 -12.9412 90.8191
lradius 63.8497
lwrist 59.8962
lhand -50.7231 -5.97697
lfingers 7.12502
lthumb -23.283 22.6353
rfemur 540.61 -179.819 -533.131
rtibia 32.5911
rfoot 11.3876 14.1373
rtoes -19.0568
lfemur 348.343 1.99419 352.973
ltibia 29.9664
lfoot 8.76398 1.69279
ltoes -27.047
256
root -0.237082 22.1553 6.77268 -178.978 49.6663 181.57
lowerback -8.56081 8.58 0.708382
upperback -0.0518423 11.7153 -4.34626
thorax 5.75154 5.91687 -3.26593
lowerneck 3.96904 2.10979 9.64801
upperneck 10.8524 3.98245 -4.72854
head 3.18022 2.47899 -3.2268
rclavicle 5.99584e-014 9.70069e-014
rhumerus 75.9894 14.4548 -82.5271
rradius 47.8481
rwrist 38.1725
rhand -59.886 18.0446
rfingers 7.12502
rthumb -32.0433 -9.15268
lclavicle 5.99584e-014 9.70069e-014
lhumerus 49.6094 -13.0394 90.4628
lradius 64.2902
lwrist 59.6387
lhand -50.6499 -6.04251
lfingers 7.12502
lthumb -23.2128 22.5786
rfemur 540.652 -180.003 -533.312
rtibia 32.4834
rfoot 10.2364 14.3831
rtoes -20.3797
lfemur 348.083 1.99242 352.765
ltibia 30.2897
lfoot 7.29412 1.30233
ltoes -28.1549
257
root -0.229082 22.0642 6.71161 -179.307 49.5617 181.3
lowerback -8.40074 8.54663 0.490581
upperback 0.0301301 11.7037 -4.42204
thorax 5.72109 5.91056 -3.2494
lowerneck 4.0505 2.10051 9.74254
upperneck 10.7201 3.97786 -4.82631
head 3.12517 2.47361 -3.28024
rclavicle 5.82439e-014 6.36111e-015
rhumerus 75.8136 14.4332 -82.5528
rradius 48.5065
rwrist 38.3299
rhand -60.2012 18.4873
rfingers 7.12502
rthumb -32.3434 -8.64923
lclavicle 5.82439e-014 6.36111e-015
lhumerus 49.5441 -13.1145 90.1551
lradius 64.619
lwrist 59.4305
lhand -50.6181 -5.99812
lfingers 7.12502
lthumb -23.1822 22.6268
rfemur 540.771 -180.271 -533.45
rtibia 32.3457
rfoot 8.90635 14.5445
rtoes -21.8578
lfemur 347.891 1.92712 352.607
ltibia 30.586
lfoot 5.70337 1.01685
ltoes -29.0859
258
root -0.22167 21.9715 6.64786 -179.328 49.4054 181.274
lowerback -8.34725 8.50955 0.460486
upperback 0.0846214 11.6665 -4.48428
thorax 5.75376 5.89482 -3.30637
lowerneck 4.02961 2.08985 9.85602
upperneck 10.6909 3.96648 -4.91369
head 3.12471 2.46812 -3.33312
rclavicle -7.86193e-014 7.4743e-014
rhumerus 75.7884 14.3832 -82.3001
rradius 49.1082
rwrist 37.9557
rhand -60.3431 19.0042
rfingers 7.12502
rthumb -32.4784 -8.10464
lclavicle -7.86193e-014 7.4743e-014
lhumerus 49.5813 -13.1816 89.845
lradius 64.8446
lwrist 59.2365
lhand -50.7148 -5.88626
lfingers 7.12502
lthumb -23.275 22.727
rfemur 540.755 -180.503 -533.406
rtibia 32.2374
rfoot 7.37262 14.6165
rtoes -23.5086
lfemur 347.583 1.82695 352.618
ltibia 30.8165
lfoot 4.14135 0.788593
ltoes -29.7197
259
root -0.214911 21.8742 6.58281 -179.154 49.2375 181.416
lowerback -8.34245 8.48366 0.548214
upperback 0.118298 11.6294 -4.52678
thorax 5.81075 5.88093 -3.3988
lowerneck 3.91625 2.07739 10.018
upperneck 11.0646 3.99815 -5.26195
head 2.95357 2.46736 -3.159
rclavicle -1.27607e-013 -3.97569e-014
rhumerus 75.7591 14.3164 -81.8978
rradius 49.721
rwrist 37.6554
rhand -60.3108 18.2742
rfingers 7.12502
rthumb -32.4477 -8.8409
lclavicle -1.27607e-013 -3.97569e-014
lhumerus 49.6865 -13.2219 89.5864
lradius 65.0295
lwrist 59.1967
lhand -50.8678 -5.67597
lfingers 7.12502
lthumb -23.4218 22.9186
rfemur 540.649 -180.686 -533.266
rtibia 32.1776
rfoot 5.77436 14.662
rtoes -24.8672
lfemur 347.229 1.6347 352.753
ltibia 30.9957
lfoot 2.6747 0.794532
ltoes -29.5258
